<svg xmlns="http://www.w3.org/2000/svg" xmlns:xlink="http://www.w3.org/1999/xlink" viewBox="0 0 493.26 495.29"><defs><style>.cls-1{fill:none;}.cls-2{fill:#f4f4f4;}.cls-3{fill:#4d4d4d;}.cls-4{fill:#cc8b14;}.cls-5{fill:#dd9917;}.cls-6{fill:#f7cb11;}.cls-7{fill:#282828;}.cls-8{fill:#6e6e6e;}.cls-9{fill:#7040cc;}.cls-10{isolation:isolate;}.cls-11{clip-path:url(#clip-path);}.cls-12{clip-path:url(#clip-path-2);}.cls-13{clip-path:url(#clip-path-3);}.cls-14{fill:#b1b6c3;}.cls-15{fill:#dadce0;}.cls-16{fill:#c4c7d2;}.cls-17{fill:#8c50ff;}.cls-18{fill:#232833;}.cls-19{fill:#394051;}.cls-20{fill:#ffcea9;}.cls-21{fill:#fff;}.cls-22{fill:#151515;}.cls-23{fill:#232323;}.cls-24{fill:#9a9a9a;}.cls-25{fill:#3a79b6;opacity:0.1;}.cls-26{fill:#38226d;}.cls-27{fill:#9c73ff;}.cls-28{fill:#3a2c6d;}.cls-29{fill:#ededed;}.cls-30{opacity:0.4;}.cls-31{opacity:0.3;}</style><clipPath id="clip-path"><path class="cls-1" d="M392.22,22.5l0,5.26c0,.12,0,.24,0,.36l0-5.27C392.21,22.73,392.22,22.62,392.22,22.5Z"/></clipPath><clipPath id="clip-path-2"><path class="cls-1" d="M372.93,23.15l0,5.26a3.4,3.4,0,0,1-.08-.64V22.51A3.52,3.52,0,0,0,372.93,23.15Z"/></clipPath><clipPath id="clip-path-3"><path class="cls-1" d="M374.87,38.64l0,5.27v0l0-5.26Z"/></clipPath></defs><title>quadrocopter_SVG</title><g id="Слой_2" data-name="Слой 2"><g id="Слой_1-2" data-name="Слой 1"><path class="cls-2" d="M475.41,337.33c0,.09,0,.18,0,.28s0,.2,0,.3a.44.44,0,0,0,0,.1h0a3,3,0,0,0,0-.31,1.23,1.23,0,0,0,0-.19v-.06a2.44,2.44,0,0,0,0-.27v-6c0,.1,0,.19,0,.29s0,.2,0,.3a1.83,1.83,0,0,1-.06.25c0,.05,0,.09,0,.14.53-1.75-.36-3.62-2.7-5a15.13,15.13,0,0,0-13.71,0c-1.88,1.09-2.81,2.52-2.81,3.95h0v1L438.1,333a11.74,11.74,0,0,1-4.73-.93l-9.92-4.41a132.91,132.91,0,0,1-12.68-6.42,110.4,110.4,0,0,1-11.13-7.32L392,308.13a4.47,4.47,0,0,1-1.19-1.29l1.38-11.92a2.45,2.45,0,0,0,0-.27v-.08l0-5.27c0,.12,0,.24,0,.35s0-.06,0-.09,0-.09,0-.14v-6.34a2.64,2.64,0,0,1,0,.28c0,.1,0,.21,0,.31s0,.16-.06.25l0,.13c.54-1.75-.36-3.61-2.7-5a15.1,15.1,0,0,0-13.71,0c-1.87,1.09-2.81,2.52-2.8,4v6.24s0,.06,0,.09v5.21a3.29,3.29,0,0,0,.08.63L374.39,307a4.47,4.47,0,0,1-1.1,1.17l-7.58,5.74a120.1,120.1,0,0,1-23.66,13.74L332.18,332a11.66,11.66,0,0,1-4.72.93l-17.87-.82v-1.05a2.85,2.85,0,0,1,0,.29c0,.1,0,.2,0,.3l-.06.25a.74.74,0,0,0,0,.14c.53-1.75-.36-3.62-2.7-5a15.1,15.1,0,0,0-13.71,0c-1.88,1.09-2.81,2.52-2.81,4h0l0,6.24h0v9.14a1.13,1.13,0,0,0,0,.18v2.49c0,1.45,1,2.9,2.86,4a12.05,12.05,0,0,0,1.4.67l.08,0,.24.09c.28.1.56.2.86.29l.48.11.28.07a1.83,1.83,0,0,0,.25.06c.31.07.63.12,1,.17l.34,0,.24,0,.36,0,.95.05h.3a2.26,2.26,0,0,0,.26,0c.14,0,.29,0,.43,0,.36,0,.72,0,1.08-.07l.12,0,.29,0c.27,0,.55-.06.82-.11s.23-.06.35-.09c.33-.07.65-.15,1-.24l.52-.13c.13,0,.26-.1.39-.15l.38-.14a11.18,11.18,0,0,0,1.35-.64l.12-.07c.09-.05.16-.11.25-.17l.35-.23.27-.21.3-.25.06,0,.1-.11.22-.24,19.05-.68a12.1,12.1,0,0,1,1.21.06l.17,0c.34,0,.68.08,1,.14l.14,0c.35.07.68.16,1,.25l.37.13q.42.14.81.3l9.94,4.41a136.53,136.53,0,0,1,12.68,6.42A111,111,0,0,1,366,370.16l7.64,5.73a4.81,4.81,0,0,1,.8.75,3.84,3.84,0,0,0-1,2.46h0v6.25c0,.07,0,.13,0,.19v3a.43.43,0,0,1,0,0v6.26c0,1.45.95,2.9,2.86,4a9.49,9.49,0,0,0,1.4.67l.08,0,.24.08c.28.1.56.21.85.29l.49.12.28.07.24.06c.32.06.64.12,1,.16l.35,0,.24,0,.36,0c.31,0,.63,0,1,.05h1c.36,0,.72,0,1.08-.08h.12l.28,0c.28,0,.56-.07.83-.12l.35-.08c.33-.07.65-.16,1-.25s.35-.07.52-.12l.39-.15.38-.15a9.85,9.85,0,0,0,1.35-.64l.12-.07.24-.16.36-.24.27-.21.3-.25s0,0,.06-.05l.1-.11a5.62,5.62,0,0,0,.41-.44l.09-.1.06-.09c.09-.12.16-.23.23-.34l.1-.14,0-.08a2,2,0,0,0,.14-.3l.09-.18s0,0,0-.06a2.46,2.46,0,0,0,.09-.29c0-.06,0-.13.05-.19a.11.11,0,0,0,0-.05c0-.1,0-.21,0-.31l0-.2v-6.34a1.79,1.79,0,0,1,0,.23v-9.62a2.83,2.83,0,0,1,0,.29c0,.1,0,.2,0,.3a2.27,2.27,0,0,1-.06.25s0,.09,0,.14a3.61,3.61,0,0,0-.95-3.54v-.05l.11-.12a4.78,4.78,0,0,1,.57-.51l7.58-5.74c.79-.6,1.6-1.2,2.42-1.78l.81-.56,1.72-1.18,1-.64,1.67-1.07,1-.63c.45-.28.92-.55,1.38-.82.65-.39,1.31-.78,2-1.16l1.3-.73,2.08-1.12,1.29-.68c.77-.4,1.55-.79,2.34-1.18l1.12-.55q1.75-.84,3.57-1.65l9.88-4.41c.33-.14.67-.27,1-.38a10.77,10.77,0,0,1,1.33-.33c.35-.07.72-.12,1.09-.16h.05q.6-.06,1.23-.06l19.25.68a7.47,7.47,0,0,0,1.48,1.13,11.17,11.17,0,0,0,1.39.67l.08,0,.24.08a7.89,7.89,0,0,0,.86.29l.48.12.28.07.25.06c.32.07.64.12,1,.17l.35,0,.24,0,.35,0q.48,0,1,.06h1c.36,0,.72,0,1.07-.07l.12,0,.29,0c.28,0,.56-.06.83-.11s.23-.07.35-.09c.33-.07.65-.15,1-.24l.51-.13c.14,0,.26-.1.39-.15l.38-.14a11.18,11.18,0,0,0,1.35-.64l.12-.07.25-.17.35-.23a2.88,2.88,0,0,0,.27-.22l.3-.24.06-.05a1.09,1.09,0,0,1,.1-.11,5.49,5.49,0,0,0,.41-.44l.09-.1s0-.07.07-.1a4,4,0,0,0,.23-.34,1.1,1.1,0,0,0,.09-.14s0-.05,0-.07.09-.2.14-.31.06-.11.08-.17,0,0,0-.06.06-.19.08-.29l.06-.2v-.05c0-.1,0-.2,0-.3s0-.14,0-.2v-.09l0-6.26h0Z"/><polygon class="cls-3" points="340.1 203.8 338.93 202.6 382.56 158.06 426.29 202.49 425.11 203.67 382.55 160.41 340.1 203.8"/><polygon class="cls-4" points="426.29 202.49 426.17 243.36 382.64 268.66 382.75 227.79 426.29 202.49"/><polygon class="cls-5" points="382.75 227.79 382.64 268.66 338.82 243.37 338.93 202.49 382.75 227.79"/><polygon class="cls-6" points="426.29 202.49 405.38 214.64 404.79 214.97 382.74 227.78 361.93 215.78 361.3 215.41 360.71 215.06 360.09 214.71 338.93 202.49 360.98 189.67 361.55 189.33 382.46 177.18 403.64 189.42 404.26 189.77 404.84 190.1 405.48 190.47 426.29 202.49"/><polygon class="cls-4" points="405.48 190.47 361.93 215.78 361.3 215.41 360.71 215.06 360.09 214.71 403.64 189.42 404.26 189.77 404.84 190.1 405.48 190.47"/><polygon class="cls-3" points="383.39 227.41 382.75 227.79 381.72 227.19 381.72 159.24 383.39 159.24 383.39 227.41"/><path class="cls-7" d="M386.73,159.41v-2.72a1.23,1.23,0,0,1-.07.42s0,.09-.05.13a2.1,2.1,0,0,1-.15.3,1,1,0,0,0-.08.11,2.07,2.07,0,0,1-.32.35l0,0a5.63,5.63,0,0,1-.51.36,4.51,4.51,0,0,1-.63.29l0,0a5,5,0,0,1-.66.2l-.07,0c-.21.05-.43.08-.64.11a7.42,7.42,0,0,1-.94.06h-.14c-.27,0-.54,0-.8-.06l-.29-.05c-.22,0-.43-.1-.64-.16l-.26-.08a5.23,5.23,0,0,1-.8-.35,2.1,2.1,0,0,1-1.23-1.73v2.73a2.11,2.11,0,0,0,1.24,1.73,4.72,4.72,0,0,0,.79.35l.26.08c.21.06.42.11.64.15l.29.05a7,7,0,0,0,.8.07h.14a5.86,5.86,0,0,0,.94-.06h.08l.51-.09h.05l.07,0,.27-.07.34-.11,0,0,.05,0,.19-.08.27-.13.16-.09.1-.06.24-.16.17-.14,0,0,0,0c.08-.07.15-.15.22-.22l.07-.11a.76.76,0,0,0,.08-.11.47.47,0,0,0,.06-.09,1.76,1.76,0,0,0,.09-.2,1.12,1.12,0,0,0,0-.13A1.31,1.31,0,0,0,386.73,159.41Z"/><path class="cls-8" d="M385.5,155c1.63.94,1.65,2.48,0,3.43a6.55,6.55,0,0,1-5.91,0c-1.63-.94-1.65-2.48,0-3.42A6.54,6.54,0,0,1,385.5,155Z"/><rect class="cls-3" x="381.72" y="106.78" width="1.67" height="49.87"/><path class="cls-9" d="M475.41,75.87,456,75.82l0,6.25c0,1.45,1,2.9,2.87,4a8.92,8.92,0,0,0,1.39.67l.08,0,.24.08c.28.1.56.21.86.29l.48.12.28.07.25.06,1,.17.35,0,.24,0,.35,0c.32,0,.64,0,1,0h1l1.07-.07.12,0,.29,0c.28,0,.56-.07.83-.12l.35-.08c.33-.07.65-.16,1-.25s.35-.07.51-.12l.39-.15.38-.14a9.89,9.89,0,0,0,1.35-.65l.12-.07.25-.16.35-.24.27-.21a3.61,3.61,0,0,0,.3-.25l.06,0,.1-.1a5.57,5.57,0,0,0,.41-.45.76.76,0,0,0,.09-.09.86.86,0,0,1,.07-.1l.23-.34.09-.14s0-.05,0-.08l.14-.3c0-.06.06-.12.08-.17s0,0,0-.06.06-.2.08-.29l.06-.2v0c0-.1,0-.21,0-.31s0-.13,0-.2v-.08h0Z"/><path class="cls-9" d="M309.6,76.07l-19.37,0,0,6.25c0,1.45,1,2.9,2.86,4a12.05,12.05,0,0,0,1.4.67l.08,0,.24.08c.28.1.56.21.86.29s.32.08.48.12l.28.07.25.06c.31.07.63.12,1,.17l.34,0,.24,0,.36,0c.31,0,.63,0,.95,0,.1,0,.2,0,.3,0h.69c.36,0,.72,0,1.08-.07l.12,0,.29,0c.27,0,.55-.07.82-.12l.35-.08c.33-.07.65-.15,1-.24l.52-.13.39-.15.38-.14a11.18,11.18,0,0,0,1.35-.64l.12-.07c.09-.06.16-.12.25-.17s.24-.15.35-.24l.27-.21.3-.25.06,0s.06-.07.1-.1.28-.3.41-.45l.09-.09a.36.36,0,0,1,.07-.1c.08-.11.15-.23.22-.34l.1-.14,0-.08c.06-.1.1-.2.15-.3s.06-.11.08-.17,0,0,0-.06.05-.2.08-.29a1.46,1.46,0,0,0,0-.2.09.09,0,0,0,0,0,2.91,2.91,0,0,0,0-.31c0-.06,0-.13,0-.19v-.09h0Z"/><g class="cls-10"><g class="cls-11"><path d="M392.22,22.5l0,5.26V22.58a.19.19,0,0,0,0-.08"/><path d="M392.21,22.58v5.27a2.45,2.45,0,0,1,0,.27l0-5.27a2.44,2.44,0,0,0,0-.27"/></g></g><g class="cls-10"><g class="cls-12"><path d="M372.93,23.15l0,5.26a3.4,3.4,0,0,1-.08-.64V22.51a3.52,3.52,0,0,0,.09.64"/></g></g><polygon class="cls-9" points="392.2 22.85 392.18 28.12 390.36 43.85 390.37 38.59 392.2 22.85"/><polygon class="cls-9" points="374.87 38.6 374.85 43.86 372.92 28.41 372.93 23.15 374.87 38.6"/><g class="cls-10"><g class="cls-13"><path d="M374.87,38.64l0,5.27v0l0-5.26v0"/></g></g><path class="cls-14" d="M475.38,70.81c0,.1,0,.2,0,.3l-.06.25c0,.1-.05.19-.09.29a.94.94,0,0,1-.1.23,1.73,1.73,0,0,1-.14.31,2.39,2.39,0,0,1-.13.21c-.07.11-.14.23-.22.34l-.16.19c-.13.15-.26.3-.41.45l-.16.15a3.61,3.61,0,0,1-.3.25l-.27.21-.35.23c-.12.08-.24.17-.37.24a10.57,10.57,0,0,1-1.31.63l-.39.15-.91.28-1,.23c-.34.07-.68.14-1,.19l-.39,0c-.55.06-1.11.1-1.67.11h-.69c-.23,0-.45,0-.67,0l-26.42-.94h-.44l-.79.05h-.06c-.33,0-.66.08-1,.13l-.09,0a9.1,9.1,0,0,0-1.32.33h-.05a8.08,8.08,0,0,0-1,.37l-9.89,4.41c-1.21.53-2.39,1.09-3.56,1.65l-1.12.55-2.35,1.17-1.28.68-2.09,1.13-1.29.73-2,1.15-.77.45-.61.38-1,.63c-.56.35-1.11.71-1.66,1.07-.33.21-.66.42-1,.64l-1.72,1.18-.8.56c-.82.58-1.63,1.17-2.42,1.77L392.33,100c-.15.12-.29.23-.42.35l-.16.17-.19.21-.13.14a4,4,0,0,0-.25.37.18.18,0,0,1-.05.07s0,0,0,0a2.53,2.53,0,0,0-.21.44s0,.11-.05.16l0,.13a.88.88,0,0,0-.05.15,3.44,3.44,0,0,0,0,.45v9.21a2.52,2.52,0,0,1,.09-.67.65.65,0,0,1,0-.13,2.85,2.85,0,0,1,.27-.63.43.43,0,0,0,0-.07,3.64,3.64,0,0,1,.39-.51l.19-.21a4.83,4.83,0,0,1,.57-.52l7.58-5.74c.79-.6,1.6-1.19,2.42-1.77l.81-.56,1.72-1.18,1-.64c.55-.36,1.1-.72,1.67-1.07l1-.63,1.38-.83c.65-.39,1.31-.77,2-1.15l1.3-.74,2.08-1.12,1.29-.68,2.34-1.17,1.12-.55c1.17-.56,2.36-1.12,3.57-1.65l9.88-4.41a8.89,8.89,0,0,1,1-.38,9.23,9.23,0,0,1,1.33-.33,9.53,9.53,0,0,1,1.09-.16h.05q.6-.06,1.23-.06l26.42.94c.21,0,.43,0,.67,0h1.07c.36,0,.72,0,1.08-.07l.2,0,.39,0,.66-.09.38-.1,1-.23c.15,0,.31-.07.46-.12l.44-.16.39-.15a10.71,10.71,0,0,0,1.32-.63l.12-.07.25-.16.35-.24.26-.21a2.48,2.48,0,0,0,.3-.25.15.15,0,0,0,.06,0l.1-.1a5.57,5.57,0,0,0,.41-.45.76.76,0,0,0,.09-.09.61.61,0,0,0,.07-.1l.23-.34a1.1,1.1,0,0,0,.09-.14s0-.05,0-.07a2.92,2.92,0,0,0,.14-.31s.06-.11.08-.17,0,0,0-.06.06-.19.08-.29l.06-.2v0c0-.1,0-.2,0-.3s0-.14,0-.2v-.09l0-9.14A2.85,2.85,0,0,1,475.38,70.81Z"/><path class="cls-14" d="M373.62,100,366,94.21a110.4,110.4,0,0,0-11.13-7.32,132.91,132.91,0,0,0-12.68-6.42l-9.94-4.41a3.92,3.92,0,0,0-.36-.16l-.44-.14-.38-.13-.12,0a7.54,7.54,0,0,0-.82-.2H330l-.15,0-.55-.1-.45,0-.18,0h-.11l-.73,0h-.36L301,76.07c-.27,0-.53,0-.8,0-.63,0-1.26,0-1.86-.09l-.24,0c-.56-.06-1.11-.15-1.64-.26l-.24-.06c-.48-.12-.94-.26-1.39-.42l-.24-.08a9.72,9.72,0,0,1-1.49-.7c-1.91-1.1-2.86-2.55-2.86-4v9.14c0,1.44.95,2.89,2.86,4a11.17,11.17,0,0,0,1.39.67l.09,0,.25.08c.26.1.53.2.81.28l.58.14.24.06.18,0c.32.07.64.12,1,.17l.49.05.23,0,.26,0c.34,0,.68,0,1,0h.94l.44,0,26.54-.94c.41,0,.81,0,1.21,0l.17,0c.34,0,.68.09,1,.15l.14,0a8.28,8.28,0,0,1,1,.25l.37.13a7.1,7.1,0,0,1,.81.3l9.94,4.41A134.11,134.11,0,0,1,354.83,96,112.7,112.7,0,0,1,366,103.35l7.64,5.74a3.52,3.52,0,0,1,1.62,2.73v-9.14A3.51,3.51,0,0,0,373.62,100Z"/><path class="cls-9" d="M392.75,121.73a2.64,2.64,0,0,1,0,.28c0,.1,0,.2,0,.31s0,.16-.06.25-.05.19-.08.28l-.1.24-.14.3-.13.22L392,124c-.05.06-.1.13-.16.19a4.2,4.2,0,0,1-.41.44l-.16.16a3.61,3.61,0,0,1-.3.25l-.27.21-.35.23c-.12.08-.24.17-.37.24a9.85,9.85,0,0,1-1.35.64l-.38.15c-.29.1-.6.19-.9.27s-.64.18-1,.24-.78.16-1.18.21l-.29,0c-.54,0-1.08.08-1.63.09H383c-.54,0-1.08,0-1.61-.09l-.24,0c-.53-.06-1.05-.15-1.56-.26l-.28-.07a13.93,13.93,0,0,1-1.34-.41l-.24-.08a9.94,9.94,0,0,1-1.47-.7c-1.91-1.1-2.87-2.55-2.87-4v6.26c0,1.45.95,2.9,2.86,4a10.62,10.62,0,0,0,1.4.67l.08,0,.24.08.85.29.49.12.28.06.24.06c.32.07.64.13,1,.17l.35,0,.24,0,.36,0,1,0h1c.36,0,.72,0,1.08-.07l.12,0,.28,0c.28,0,.56-.06.83-.11s.23-.06.35-.09c.33-.07.65-.15,1-.24s.35-.07.52-.13l.39-.15.38-.14a11.18,11.18,0,0,0,1.35-.64l.12-.07.24-.17.36-.23.27-.21.3-.25s0,0,.06-.05l.1-.11a5.62,5.62,0,0,0,.41-.44l.09-.1.06-.1a2.54,2.54,0,0,0,.23-.34l.1-.14,0-.07a2,2,0,0,0,.14-.3l.09-.18s0,0,0-.06.06-.19.09-.29,0-.13.05-.19a.13.13,0,0,0,0-.06c0-.1,0-.2,0-.3l0-.2V128h0Z"/><path class="cls-15" d="M392.74,118.48a2.83,2.83,0,0,1,0,.29c0,.11,0,.23,0,.35a2.27,2.27,0,0,1-.06.25,2.8,2.8,0,0,1-.09.31c0,.08-.06.16-.1.25s-.09.2-.14.3l-.14.23a2.92,2.92,0,0,1-.21.32l-.16.21-.4.42-.16.16-.28.23-.28.22a3.78,3.78,0,0,1-.33.22l-.38.25a9.45,9.45,0,0,1-1.36.64l-.37.14a8.75,8.75,0,0,1-.91.28c-.32.09-.64.18-1,.24s-.78.16-1.18.21l-.28,0c-.54,0-1.09.08-1.63.09H383c-.54,0-1.08,0-1.61-.09l-.24,0a13.37,13.37,0,0,1-1.56-.27l-.27-.06a13.93,13.93,0,0,1-1.34-.41l-.24-.08a10.06,10.06,0,0,1-1.48-.7c-1.85-1.07-2.81-2.47-2.86-3.87v5.26c.05,1.41,1,2.8,2.86,3.88a11.17,11.17,0,0,0,1.39.67l.08,0,.24.08a7.89,7.89,0,0,0,.86.29l.48.12.28.07.25.06c.31.07.63.12,1,.17l.35,0,.24,0,.35,0c.32,0,.64,0,.95,0,.1,0,.2,0,.3,0h.7c.36,0,.71,0,1.07-.07l.12,0,.29,0,.83-.11c.12,0,.23-.07.35-.09q.5-.1,1-.24l.52-.13.39-.15.38-.14a11.18,11.18,0,0,0,1.35-.64l.13-.08.26-.17.32-.22.28-.22.28-.23.06,0,.1-.11a4,4,0,0,0,.4-.43l.09-.09a.75.75,0,0,0,.07-.12,3.62,3.62,0,0,0,.22-.32.67.67,0,0,0,.09-.14l0-.09.14-.3s.05-.11.07-.17l0-.08c0-.1.06-.2.08-.3s0-.13.06-.19a.2.2,0,0,1,0-.07c0-.11,0-.23,0-.35s0-.12,0-.19v-.09h0Z"/><path class="cls-16" d="M472.55,66.53c3.79,2.19,3.81,5.74,0,7.93a13.78,13.78,0,0,1-6.65,1.64c-.53,0-.95,0-1.36,0l-26.42-.94a11.74,11.74,0,0,0-4.71.94l-9.89,4.41a120,120,0,0,0-23.65,13.74L392.33,100a3.53,3.53,0,0,0-1.6,2.74l1.95,15.17a2.22,2.22,0,0,1,.06.51c0,1.55-.89,3-2.79,4.12a15.11,15.11,0,0,1-13.7,0c-1.85-1.07-2.81-2.47-2.86-3.87a2.67,2.67,0,0,1,.1-.87l1.74-15.07a3.51,3.51,0,0,0-1.61-2.73L366,94.21a110.4,110.4,0,0,0-11.13-7.32,132.91,132.91,0,0,0-12.68-6.42l-9.94-4.41a11.64,11.64,0,0,0-4.71-.93L301,76.07c-.27,0-.53,0-.8,0a14.25,14.25,0,0,1-7.1-1.64c-3.79-2.19-3.81-5.74,0-7.93a13.93,13.93,0,0,1,6.86-1.65c.47,0,.9,0,1.32.06l26.26,1.21a11.83,11.83,0,0,0,4.72-.93l9.87-4.41a119.63,119.63,0,0,0,23.66-13.75l7.58-5.73a3.48,3.48,0,0,0,1.58-2.73l-1.94-15.45a3.52,3.52,0,0,1-.09-.64c0-1.47.93-2.91,2.83-4a15.08,15.08,0,0,1,13.69,0c2.07,1.19,3,2.79,2.84,4.35l-1.83,15.74A3.58,3.58,0,0,0,392,41.33l7.65,5.73a110.45,110.45,0,0,0,11.13,7.33,135.29,135.29,0,0,0,12.68,6.42l9.92,4.41a11.91,11.91,0,0,0,4.73.93l26.23-1.21c.43,0,.88-.06,1.32-.06A14.11,14.11,0,0,1,472.55,66.53Z"/><path class="cls-9" d="M392.22,16.28c0,.09,0,.18,0,.28s0,.2,0,.3a1.83,1.83,0,0,1-.06.25,2.45,2.45,0,0,1-.08.29l-.1.24-.14.3-.13.21a4,4,0,0,1-.23.34l-.16.2a4.2,4.2,0,0,1-.41.44l-.16.16-.3.24a2.88,2.88,0,0,1-.27.22l-.35.23-.37.24a11.18,11.18,0,0,1-1.35.64l-.38.14a8.75,8.75,0,0,1-.91.28q-.47.13-1,.24c-.39.08-.78.16-1.18.21l-.29,0c-.54.06-1.08.09-1.63.1h-.26c-.53,0-1.07,0-1.6-.09l-.24,0a13.37,13.37,0,0,1-1.56-.27l-.28-.06c-.46-.12-.91-.26-1.34-.41l-.24-.08a9.94,9.94,0,0,1-1.47-.7c-1.91-1.1-2.87-2.55-2.87-4v6.26c0,1.44.95,2.89,2.86,4a12.05,12.05,0,0,0,1.4.67l.08,0,.24.08a8.51,8.51,0,0,0,.85.29c.16.05.33.08.49.12l.28.07.24.06c.32.07.64.12,1,.17l.35,0,.24,0,.36,0c.31,0,.63.05.95.06h.56c.14,0,.29,0,.43,0,.36,0,.72,0,1.08-.07l.12,0,.28,0c.28,0,.56-.06.83-.11s.23-.07.35-.09c.33-.07.65-.15,1-.24l.51-.13c.14,0,.27-.1.4-.15l.38-.14a11.18,11.18,0,0,0,1.35-.64l.12-.07.24-.17.36-.23a2.75,2.75,0,0,0,.26-.22l.31-.24a.15.15,0,0,1,.06-.05.52.52,0,0,1,.1-.11c.14-.15.28-.29.41-.44a.43.43,0,0,1,.09-.1l.06-.1a2.54,2.54,0,0,0,.23-.34l.1-.14,0-.07a1.73,1.73,0,0,0,.14-.31l.09-.17s0,0,0-.06.06-.19.09-.29,0-.13.05-.2a.07.07,0,0,0,0-.05c0-.1,0-.2,0-.3l0-.2v-.09h0Z"/><path class="cls-9" d="M309.6,64.28a2.66,2.66,0,0,1,0,.28c0,.1,0,.21,0,.31l-.06.25c0,.09-.05.19-.09.28a2.44,2.44,0,0,1-.1.24,2,2,0,0,1-.14.3,1.59,1.59,0,0,1-.13.22c-.07.11-.14.22-.23.34l-.15.19c-.13.15-.27.3-.41.44l-.17.16a3.47,3.47,0,0,1-.29.25l-.28.21-.34.24c-.13.08-.24.16-.37.23a8.49,8.49,0,0,1-1.36.64l-.37.15c-.29.1-.6.19-.91.27s-.64.18-1,.25-.78.15-1.18.2l-.28,0c-.54.06-1.09.08-1.63.09h-.26a14.35,14.35,0,0,1-1.61-.09l-.24,0c-.53-.06-1.05-.15-1.56-.26l-.27-.07A11.58,11.58,0,0,1,294.8,69l-.24-.08a10.06,10.06,0,0,1-1.48-.7c-1.91-1.1-2.87-2.55-2.86-4l0,6.26c0,1.45.95,2.9,2.87,4a9.92,9.92,0,0,0,1.39.67l.08,0,.24.08c.28.1.56.2.86.29l.48.12.28.06.25.07c.31.06.63.12,1,.16l.35,0,.24,0,.35,0,.95.05h1c.36,0,.71,0,1.07-.07h.12l.29,0,.83-.12a3.37,3.37,0,0,0,.34-.09,10,10,0,0,0,1-.24c.16-.05.34-.07.51-.13s.26-.1.39-.15l.38-.14a9.85,9.85,0,0,0,1.35-.64l.12-.07.25-.16.35-.24.27-.21.3-.25.06,0a1.09,1.09,0,0,0,.1-.11,4.2,4.2,0,0,0,.41-.44.43.43,0,0,0,.09-.1.86.86,0,0,0,.07-.1l.23-.33a1.19,1.19,0,0,0,.09-.15s0,0,0-.07l.14-.3c0-.06.06-.12.08-.18s0,0,0-.06a2.45,2.45,0,0,0,.08-.29l.06-.19v-.06c0-.1,0-.2,0-.3s0-.13,0-.2v-.08h0Z"/><path class="cls-17" d="M306.74,60.29c3.79,2.19,3.81,5.74,0,7.93a15.11,15.11,0,0,1-13.7,0c-3.79-2.19-3.82-5.74-.05-7.93A15.1,15.1,0,0,1,306.74,60.29Z"/><path class="cls-9" d="M392.75,112.34a2.64,2.64,0,0,1,0,.28,2.91,2.91,0,0,1,0,.31c0,.08,0,.16-.06.25s-.05.19-.08.29-.07.15-.1.23l-.14.3c0,.08-.09.15-.13.22l-.23.34c-.05.06-.1.13-.16.19a4.2,4.2,0,0,1-.41.44l-.16.16a3.61,3.61,0,0,1-.3.25l-.27.21-.35.24c-.12.08-.24.16-.37.23a9.89,9.89,0,0,1-1.35.65l-.38.14-.9.28c-.32.09-.64.17-1,.24s-.78.15-1.18.2l-.29,0a14.7,14.7,0,0,1-1.63.09H383a14.35,14.35,0,0,1-1.61-.09l-.24,0q-.79-.11-1.56-.27l-.28-.07a11.58,11.58,0,0,1-1.34-.41l-.24-.08a9.94,9.94,0,0,1-1.47-.7c-1.91-1.1-2.87-2.55-2.87-4v6.26c0,1.45.95,2.9,2.86,4a10.62,10.62,0,0,0,1.4.67l.08,0,.24.08c.28.1.56.21.85.29l.49.12.28.07.24.06c.32.06.64.12,1,.16l.35,0,.24,0,.36,0,1,.05h1c.36,0,.72,0,1.08-.08h.12l.28,0c.28,0,.56-.07.83-.12s.23-.06.35-.09c.33-.06.65-.15,1-.24s.35-.07.52-.12l.39-.15.38-.15a9.85,9.85,0,0,0,1.35-.64l.12-.07.24-.16.36-.24.27-.21.3-.25s0,0,.06,0l.1-.11a5.62,5.62,0,0,0,.41-.44l.09-.1.06-.09c.09-.12.16-.23.23-.34l.1-.15,0-.07a2,2,0,0,0,.14-.3l.09-.18s0,0,0-.06a2.46,2.46,0,0,0,.09-.29c0-.06,0-.13.05-.19a.11.11,0,0,0,0,0c0-.11,0-.21,0-.31l0-.2v-.08h0Z"/><path class="cls-17" d="M389.9,108.35c3.79,2.19,3.81,5.74,0,7.93a15,15,0,0,1-13.69,0c-3.8-2.19-3.83-5.74-.06-7.93A15.12,15.12,0,0,1,389.9,108.35Z"/><path class="cls-9" d="M475.4,64.35c0,.1,0,.19,0,.29s0,.2,0,.3a2.27,2.27,0,0,1-.06.25c0,.09,0,.19-.08.29s-.07.15-.1.23-.09.21-.15.31a1.2,1.2,0,0,1-.13.21c-.07.11-.14.23-.22.34l-.16.19a5.57,5.57,0,0,1-.41.45l-.16.15-.3.25-.27.22-.35.23-.37.24a11.18,11.18,0,0,1-1.35.64l-.38.14c-.29.11-.6.19-.91.28s-.64.17-1,.24-.78.15-1.18.2l-.28,0a14.7,14.7,0,0,1-1.63.09h-.26a14.48,14.48,0,0,1-1.61-.09l-.23,0q-.79-.1-1.56-.27l-.28-.07a11.58,11.58,0,0,1-1.34-.41l-.24-.08a11.16,11.16,0,0,1-1.48-.69c-1.91-1.11-2.86-2.56-2.86-4v6.26c0,1.45.95,2.9,2.86,4a9,9,0,0,0,1.4.67l.07,0,.24.08c.29.1.57.21.86.29l.49.12.27.07.25.06c.32.06.64.12,1,.16l.35,0,.24,0,.35,0c.32,0,.64,0,1,0h1c.36,0,.72,0,1.07-.08h.12l.29,0c.28,0,.56-.07.83-.12l.35-.08c.33-.07.65-.16,1-.25s.35-.07.51-.12.26-.11.4-.15l.37-.15a9.32,9.32,0,0,0,1.35-.64l.12-.07.25-.16.35-.24.27-.21a2.48,2.48,0,0,0,.3-.25s0,0,.06-.05a.52.52,0,0,0,.1-.11,5.77,5.77,0,0,0,.42-.44l.09-.1.06-.09c.09-.12.16-.23.23-.34l.1-.14,0-.08c.05-.1.1-.2.14-.3a1.42,1.42,0,0,0,.08-.18s0,0,0-.06a6.81,6.81,0,0,1,.14-.48.07.07,0,0,1,0,0c0-.1,0-.21,0-.31a1.23,1.23,0,0,0,0-.2s0,0,0-.08h0Z"/><path class="cls-17" d="M472.54,60.36c3.8,2.19,3.82,5.74,0,7.94a15.11,15.11,0,0,1-13.7,0c-3.79-2.19-3.82-5.75-.05-7.94A15.1,15.1,0,0,1,472.54,60.36Z"/><path class="cls-17" d="M389.36,12.28c3.8,2.19,3.82,5.75,0,7.94a15.08,15.08,0,0,1-13.69,0c-3.8-2.19-3.83-5.75-.06-7.94A15.13,15.13,0,0,1,389.36,12.28Z"/><path class="cls-9" d="M408,58.34a3,3,0,0,1-.05.43,3.38,3.38,0,0,1-.08.34c0,.14-.07.27-.12.41s-.09.22-.14.33-.12.28-.19.42l-.18.3c-.1.15-.2.31-.32.46l-.22.27a6.53,6.53,0,0,1-.57.62c-.07.07-.13.14-.21.21l-.4.33-.38.3-.47.32c-.17.11-.33.22-.52.33L385.5,74.23c-.3.17-.64.35-1,.53l-.15.08-1.16.53-.23.09c-.42.18-.86.36-1.33.54l-.21.08-1.52.54h0l-1.41.46-1,.31-.9.26-1.08.29-.93.24-1.11.26-.94.22-1.13.22c-.31.06-.63.13-.95.18l-.78.13-1.12.17-.79.09-1,.11c-.41,0-.82.06-1.22.08s-.55,0-.81,0h-.56c-.39,0-.77,0-1.13,0h-.32q-.69,0-1.32-.15l-.18,0A7.58,7.58,0,0,1,360,79.2l-.18-.06a5.49,5.49,0,0,1-1-.44,3.33,3.33,0,0,1-1.76-3.06v5.27A3.31,3.31,0,0,0,358.8,84a6.1,6.1,0,0,0,.68.32l.33.12.19.06.16.06.68.16.31,0,.19,0,.23,0q.42.06.87.09h.21l.32,0,.53,0h1.42l.56,0,1.22-.09.32,0,.66-.08.79-.1,1.12-.17.79-.12.23,0,.72-.14,1.12-.23.94-.21,1.12-.26.92-.24,1.08-.29.9-.27,1-.31.37-.11,1-.34h0l1.51-.55.22-.08c.46-.18.9-.35,1.32-.53l.24-.1,1.15-.52a1.19,1.19,0,0,1,.16-.08c.36-.18.71-.36,1-.54l18.63-10.82.16-.09.35-.24.47-.31c.14-.1.26-.2.38-.3a4.47,4.47,0,0,0,.4-.34l.08-.06.14-.15a6.45,6.45,0,0,0,.57-.61l.12-.13a1.7,1.7,0,0,1,.1-.14l.31-.47.13-.19.05-.11a4,4,0,0,0,.2-.42c0-.08.08-.16.11-.24s0-.06,0-.09a3,3,0,0,0,.12-.4c0-.09.06-.18.08-.27a.17.17,0,0,1,0-.07c0-.15,0-.29,0-.43a2.48,2.48,0,0,1,0-.27V58C408,58.08,408,58.21,408,58.34Z"/><path class="cls-17" d="M404.05,52.41c5.24,3,5.28,8,.07,11L385.5,74.23c-5.2,3-21.45,7.49-26.68,4.47s2.43-12.45,7.63-15.47l18.62-10.82C390.28,49.38,398.82,49.39,404.05,52.41Z"/><path class="cls-18" d="M369.49,73.65s0,0,0,0a1.94,1.94,0,0,1-.22.43l-.05.07a2.71,2.71,0,0,1-.36.41l-.32.23-.29.21a5.33,5.33,0,0,1-.91.4l-.35.1a3.9,3.9,0,0,1-.46.12l-.57.1h-.13c-.26,0-.52,0-.78,0h-.12a6.49,6.49,0,0,1-.77,0H364a6,6,0,0,1-.74-.13l-.13,0c-.22,0-.43-.12-.64-.19l-.11,0a6.64,6.64,0,0,1-.71-.33,2.32,2.32,0,0,1-1.36-1.91l0,2.15a2.3,2.3,0,0,0,1.36,1.9,4.6,4.6,0,0,0,.67.32l0,0,.12,0,.41.14.23.06.13,0,.12,0,.46.08.16,0h.12l.17,0,.46,0h.13a.56.56,0,0,0,.13,0,1.47,1.47,0,0,0,.21,0,4.36,4.36,0,0,0,.51,0h.06l.13,0,.4,0,.17,0,.46-.12a2.27,2.27,0,0,0,.25-.06l.1,0a4.65,4.65,0,0,0,.91-.4l0,0a2.07,2.07,0,0,0,.24-.17,2.55,2.55,0,0,0,.31-.24l0,0a2.69,2.69,0,0,0,.29-.3l.05-.08.05-.07.08-.13a2.1,2.1,0,0,0,.13-.26.06.06,0,0,1,0,0,.43.43,0,0,1,0,0,1.09,1.09,0,0,0,0-.17,1.24,1.24,0,0,0,0-.27v0l0-2.14A1.6,1.6,0,0,1,369.49,73.65Z"/><path class="cls-18" d="M385.83,15a0,0,0,0,1,0,0,1.07,1.07,0,0,1-.16.32l0,.05a3.65,3.65,0,0,1-.27.3c-.07.06-.16.11-.24.17l-.21.15a3.29,3.29,0,0,1-.66.29l-.25.08-.34.08a2.7,2.7,0,0,1-.41.07l-.1,0a5.12,5.12,0,0,1-.56,0h-.09a5.12,5.12,0,0,1-.56,0h-.08a4.34,4.34,0,0,1-.54-.09l-.1,0-.47-.14-.08,0a4,4,0,0,1-.51-.24,1.68,1.68,0,0,1-1-1.39v1.83a1.7,1.7,0,0,0,1,1.39l.49.23h0l.09,0,.3.1.16,0,.1,0,.09,0a1.91,1.91,0,0,0,.33.06l.12,0h.21l.33,0h.34l.38,0h.14l.29,0,.12,0,.33-.08.18-.05.08,0a3.57,3.57,0,0,0,.66-.29l0,0a1.77,1.77,0,0,0,.17-.12,2,2,0,0,0,.23-.18h0a2.29,2.29,0,0,0,.21-.23l0-.05,0,0,.06-.1a.66.66,0,0,0,.09-.19v0s0,0,0,0a.79.79,0,0,0,0-.13,1.25,1.25,0,0,0,0-.19V14.64A1.07,1.07,0,0,1,385.83,15Z"/><path class="cls-18" d="M385.83,111.19s0,0,0,0a1,1,0,0,1-.16.31l0,.06a2.44,2.44,0,0,1-.27.29,2.15,2.15,0,0,1-.24.18l-.21.15a4,4,0,0,1-.66.29l-.25.08-.34.08-.41.07h-.1a5.12,5.12,0,0,1-.56,0h-.09l-.56,0h-.08a4.34,4.34,0,0,1-.54-.09l-.1,0-.47-.14-.08,0a4,4,0,0,1-.51-.24,1.7,1.7,0,0,1-1-1.39v1.83a1.68,1.68,0,0,0,1,1.38,3.71,3.71,0,0,0,.49.24h0l.09,0a2.65,2.65,0,0,0,.3.11l.16,0,.1,0,.09,0,.33.06h.2l.13,0h.67l.38,0h.14l.29,0,.12,0,.33-.09.18,0,.08,0a5.71,5.71,0,0,0,.66-.29l0,0,.17-.12.23-.18,0,0a2.18,2.18,0,0,0,.21-.22l0,0,0-.06.06-.09a.82.82,0,0,0,.09-.19s0,0,0,0,0,0,0,0a.53.53,0,0,0,0-.12,1.48,1.48,0,0,0,0-.19v-1.86A1,1,0,0,1,385.83,111.19Z"/><path class="cls-18" d="M468.42,63.47s0,0,0,0a1.53,1.53,0,0,1-.16.31l0,0a1.5,1.5,0,0,1-.27.3l-.23.17a1.59,1.59,0,0,1-.21.15,3.57,3.57,0,0,1-.66.29l-.26.08-.33.08a3.2,3.2,0,0,1-.41.07l-.1,0a5.44,5.44,0,0,1-.57,0h-.09l-.56,0h-.08a5.07,5.07,0,0,1-.54-.09l-.1,0a3.5,3.5,0,0,1-.46-.14l-.09,0a4,4,0,0,1-.51-.24,1.68,1.68,0,0,1-1-1.39v1.83a1.68,1.68,0,0,0,1,1.39,3.54,3.54,0,0,0,.48.23h0l.08,0,.3.1.17,0,.09,0,.09,0,.34,0,.12,0h.2l.33,0h.35l.37,0h0l.1,0,.29,0,.12,0,.34-.08.18,0,.07,0a3.29,3.29,0,0,0,.66-.29l0,0c.07,0,.11-.09.17-.13s.17-.11.24-.17a0,0,0,0,1,0,0,1.51,1.51,0,0,0,.21-.23l0,0,0,0,.07-.1a1.08,1.08,0,0,0,.08-.19,18590267978.47,18590267978.47,0,0,1,0-.06.65.65,0,0,0,0-.13,1.23,1.23,0,0,0,0-.19V63.12A1.43,1.43,0,0,1,468.42,63.47Z"/><path class="cls-18" d="M303.21,63.47s0,0,0,0a1.53,1.53,0,0,1-.16.31l0,0a1.5,1.5,0,0,1-.27.3,1.37,1.37,0,0,1-.23.17,1.59,1.59,0,0,1-.21.15,3.57,3.57,0,0,1-.66.29l-.26.08-.33.08a3.2,3.2,0,0,1-.41.07l-.1,0a5.44,5.44,0,0,1-.57,0h-.09l-.56,0h-.08a5.07,5.07,0,0,1-.54-.09l-.1,0a3.5,3.5,0,0,1-.46-.14l-.09,0a4,4,0,0,1-.51-.24,1.68,1.68,0,0,1-1-1.39v1.83a1.68,1.68,0,0,0,1,1.39,3.54,3.54,0,0,0,.48.23h0l.08,0,.3.1.17,0,.09,0,.09,0,.34,0,.12,0h.2l.33,0h.35l.37,0h0l.1,0,.29,0,.12,0,.34-.08.18,0,.07,0a3.29,3.29,0,0,0,.66-.29l0,0c.07,0,.11-.09.17-.13s.17-.11.24-.17a0,0,0,0,1,0,0,1.51,1.51,0,0,0,.21-.23l0,0,0,0,.07-.1a1.08,1.08,0,0,0,.08-.19,0,0,0,0,0,0,0,0,0,0,0,0,0,0,.65.65,0,0,0,0-.13,1.23,1.23,0,0,0,0-.19V63.12A1.43,1.43,0,0,1,303.21,63.47Z"/><path class="cls-19" d="M368.21,71.27c1.8,1,1.82,2.73,0,3.78a7.24,7.24,0,0,1-6.54,0c-1.8-1-1.82-2.74,0-3.79A7.19,7.19,0,0,1,368.21,71.27Z"/><path class="cls-19" d="M384.9,13.25c1.32.77,1.32,2,0,2.76a5.23,5.23,0,0,1-4.75,0c-1.32-.76-1.33-2,0-2.75A5.22,5.22,0,0,1,384.9,13.25Z"/><path class="cls-19" d="M384.9,109.46c1.32.76,1.32,2,0,2.76a5.23,5.23,0,0,1-4.75,0c-1.32-.76-1.33-2,0-2.76A5.25,5.25,0,0,1,384.9,109.46Z"/><path class="cls-19" d="M467.48,61.73c1.32.77,1.33,2,0,2.76a5.25,5.25,0,0,1-4.76,0c-1.32-.76-1.32-2,0-2.75A5.2,5.2,0,0,1,467.48,61.73Z"/><path class="cls-19" d="M302.27,61.73c1.32.77,1.33,2,0,2.76a5.25,5.25,0,0,1-4.76,0c-1.32-.76-1.32-2,0-2.75A5.2,5.2,0,0,1,302.27,61.73Z"/><polygon class="cls-18" points="393.82 52.64 366.58 68.47 364.96 67.53 392.2 51.7 393.82 52.64"/><polygon class="cls-18" points="380.03 49.16 352.79 64.99 351.16 64.05 378.4 48.22 380.03 49.16"/><polygon class="cls-18" points="416.7 76.5 389.46 92.32 387.84 91.39 415.08 75.56 416.7 76.5"/><polygon class="cls-18" points="401.57 60.38 374.33 76.21 372.7 75.28 399.94 59.45 401.57 60.38"/><path class="cls-18" d="M339.32,81.19c.81.46,1.45,2.07,1.44,3.59s-.65,2.38-1.45,1.91-1.45-2.07-1.45-3.58S338.52,80.73,339.32,81.19Z"/><path class="cls-18" d="M344.07,83.4c.81.46,1.45,2.07,1.44,3.59s-.65,2.38-1.46,1.91-1.44-2.07-1.44-3.58S343.27,82.94,344.07,83.4Z"/><path class="cls-18" d="M348.33,85.51c.81.47,1.44,2.07,1.44,3.6s-.65,2.38-1.46,1.91-1.45-2.07-1.44-3.59S347.53,85.05,348.33,85.51Z"/><path class="cls-18" d="M358.51,91.27c.81.47,1.45,2.07,1.44,3.6s-.65,2.37-1.46,1.91-1.45-2.07-1.44-3.59S357.71,90.81,358.51,91.27Z"/><path class="cls-2" d="M87.52,444.54c22.1,12.76,24.54,32.12,5.43,43.22s-52.55,9.76-74.64-3-24.54-32.11-5.41-43.22S65.41,431.78,87.52,444.54Z"/><path class="cls-20" d="M71.9,238.42a49.46,49.46,0,0,1,16.78-4c1.11,0,2.58-.36,3.06-.36a6.17,6.17,0,0,1,1.52.41L74,245.1Z"/><path class="cls-21" d="M95.66,235.83l34.22,19.76-20.67,12L75,247.84Zm19.79,17.77a10.7,10.7,0,0,0-9.76,0c-2.69,1.56-2.67,4.09,0,5.65a10.74,10.74,0,0,0,9.75,0c2.69-1.56,2.67-4.1,0-5.65m-16.27-3.76c2.68-1.57,2.67-4.09,0-5.66a10.76,10.76,0,0,0-9.76,0c-2.69,1.57-2.67,4.09,0,5.66a10.74,10.74,0,0,0,9.75,0m10.33,16.6,1.26-.74-14.18-8.19-1.26.74,14.18,8.19M91.18,255.86l1.27-.74-14.19-8.19-1.26.74,14.18,8.19m33.15,1.23-1.07-.63-12.64,7.35,1.08.62,12.63-7.34m-31.23-18-12.64,7.34,1.08.63,12.64-7.35-1.08-.62m-.52,18.4a2.88,2.88,0,0,0,2.62,0,.81.81,0,0,0,0-1.53,3,3,0,0,0-2.63,0,.81.81,0,0,0,0,1.53m16.83-12.91-2.22,1.3,2.24,1.29,2.22-1.29-2.24-1.3m-3.15-1.81L104,244l2.24,1.29L108.5,244l-2.24-1.29m6.3,3.63-2.22,1.29,2.23,1.29,2.23-1.29-2.24-1.29m12.59,7.27-2.23,1.29,2.24,1.29,2.22-1.29-2.23-1.29m-22-12.72-2.22,1.29,2.23,1.29,2.22-1.29-2.23-1.29m4,9.36a.68.68,0,0,0,0-1.29,2.44,2.44,0,0,0-2.23,0,.68.68,0,0,0,0,1.29,2.44,2.44,0,0,0,2.23,0M101.93,252a2.44,2.44,0,0,0,2.23,0,.68.68,0,0,0,0-1.29,2.42,2.42,0,0,0-2.22,0,.68.68,0,0,0,0,1.29m-5.11-14.73-2.22,1.29,2.24,1.29,2.22-1.29-2.24-1.29M122,251.81l-2.22,1.3,2.23,1.28,2.22-1.29L122,251.81M100,239.1l-2.22,1.29,2.23,1.29,2.22-1.3L100,239.1M118.85,250l-2.22,1.29,2.23,1.29,2.23-1.29L118.85,250m-3.14-1.82-2.23,1.29,2.24,1.29,2.22-1.29-2.23-1.29m-14.63,5.62a.68.68,0,0,0,0-1.29,2.48,2.48,0,0,0-2.22,0,.68.68,0,0,0,0,1.29,2.5,2.5,0,0,0,2.23,0"/><path class="cls-22" d="M71.91,246.77a2.06,2.06,0,0,0,1.21,1.69l33.59,19.39a5.09,5.09,0,0,0,.62.3l.1,0,.57.18.12,0q.33.08.66.12h.1c.23,0,.46,0,.69,0h.11c.23,0,.46,0,.69,0l.12,0,.5-.08.41-.11.39-.11.15-.06a3.88,3.88,0,0,0,.58-.28l18-10.47A2.64,2.64,0,0,0,131,257l0,0a2.25,2.25,0,0,0,.33-.37l0-.07a1.5,1.5,0,0,0,.19-.38l0-.05a1.54,1.54,0,0,0,.07-.42v1.65a2,2,0,0,1,0,.23.88.88,0,0,1,0,.15s0,0,0,.05v0a2.56,2.56,0,0,1-.11.24.76.76,0,0,1-.08.11l0,.07-.05.06a1.62,1.62,0,0,1-.25.28l0,0,0,0a2.49,2.49,0,0,1-.44.32l-.05,0-18,10.47a3.72,3.72,0,0,1-.57.27,1,1,0,0,1-.16.06l-.17.07-.21.05a2.86,2.86,0,0,1-.42.1l-.14,0-.36.05-.12,0h0l-.45,0a1.21,1.21,0,0,1-.19,0h-.23l-.41,0h-.25l-.15,0-.41-.07-.1,0-.12,0-.21,0-.36-.12-.1,0,0,0a4.11,4.11,0,0,1-.6-.28L73.12,250.07a2.07,2.07,0,0,1-1.22-1.7Z"/><polygon class="cls-23" points="122.92 254.92 125.16 256.21 127.38 254.92 125.15 253.63 122.92 254.92"/><polygon class="cls-23" points="122.01 254.4 124.23 253.1 122 251.81 119.78 253.11 122.01 254.4"/><polygon class="cls-23" points="118.87 252.57 121.08 251.28 118.86 250 116.63 251.28 118.87 252.57"/><polygon class="cls-23" points="115.72 250.76 117.94 249.47 115.7 248.18 113.48 249.47 115.72 250.76"/><polygon class="cls-23" points="110.62 263.8 111.7 264.43 124.33 257.08 123.25 256.46 110.62 263.8"/><polygon class="cls-23" points="112.58 248.94 114.8 247.66 112.56 246.36 110.33 247.66 112.58 248.94"/><polygon class="cls-23" points="109.43 247.13 111.65 245.84 109.41 244.55 107.19 245.84 109.43 247.13"/><path class="cls-23" d="M105.69,253.59c-2.69,1.57-2.67,4.09,0,5.66a10.76,10.76,0,0,0,9.76,0c2.68-1.57,2.67-4.09,0-5.66A10.76,10.76,0,0,0,105.69,253.59Z"/><path class="cls-23" d="M107.15,250.27a.68.68,0,0,0,0-1.29,2.42,2.42,0,0,0-2.22,0c-.62.36-.62.94,0,1.29A2.44,2.44,0,0,0,107.15,250.27Z"/><polygon class="cls-23" points="106.28 245.31 108.5 244.02 106.26 242.72 104.04 244.02 106.28 245.31"/><path class="cls-23" d="M104.16,252a.68.68,0,0,0,0-1.29,2.44,2.44,0,0,0-2.23,0c-.61.35-.61.93,0,1.29A2.5,2.5,0,0,0,104.16,252Z"/><polygon class="cls-23" points="103.13 243.49 105.35 242.2 103.12 240.91 100.9 242.21 103.13 243.49"/><path class="cls-23" d="M101.07,252.51a2.42,2.42,0,0,0-2.22,0,.68.68,0,0,0,0,1.29,2.5,2.5,0,0,0,2.23,0A.68.68,0,0,0,101.07,252.51Z"/><polygon class="cls-23" points="99.98 241.67 102.21 240.38 99.97 239.1 97.75 240.38 99.98 241.67"/><polygon class="cls-23" points="96.59 257.51 95.33 258.25 109.51 266.44 110.77 265.7 96.59 257.51"/><polygon class="cls-23" points="96.82 237.28 94.6 238.57 96.84 239.86 99.06 238.57 96.82 237.28"/><path class="cls-23" d="M92.58,257.45a2.9,2.9,0,0,0,2.63,0,.8.8,0,0,0,0-1.52,2.9,2.9,0,0,0-2.63,0C91.85,256.34,91.85,257,92.58,257.45Z"/><path class="cls-23" d="M99.15,244.18a10.82,10.82,0,0,0-9.76,0c-2.69,1.57-2.67,4.09,0,5.66a10.74,10.74,0,0,0,9.75,0C101.87,248.27,101.85,245.74,99.15,244.18Z"/><polygon class="cls-23" points="81.54 247.02 94.17 239.67 93.09 239.05 80.46 246.39 81.54 247.02"/><polygon class="cls-23" points="92.44 255.12 78.26 246.93 77 247.67 91.18 255.85 92.44 255.12"/><path class="cls-23" d="M73.12,248.46l33.58,19.39a6.42,6.42,0,0,0,5.82,0l18-10.46c1.6-.94,1.6-2.44,0-3.38L96.93,234.62a6.46,6.46,0,0,0-5.81,0l-18,10.48C71.5,246,71.51,247.53,73.12,248.46Zm1.87-.62,20.67-12,34.23,19.76-20.67,12Z"/><polygon class="cls-24" points="91.8 244.87 90.58 245.58 90.14 244.62 91.8 244.87"/><polygon class="cls-24" points="114.71 254.03 114.27 254.99 113.05 254.28 114.71 254.03"/><polygon class="cls-24" points="114.29 257.86 114.74 258.82 113.07 258.56 114.29 257.86"/><path class="cls-24" d="M111.48,255.9a.55.55,0,0,1,0,1,2,2,0,0,1-1.8,0c-.49-.29-.5-.75,0-1A2,2,0,0,1,111.48,255.9Z"/><polygon class="cls-24" points="90.6 248.44 91.82 249.15 90.16 249.41 90.6 248.44"/><polygon class="cls-24" points="98.41 244.61 97.97 245.58 96.75 244.87 98.41 244.61"/><path class="cls-24" d="M95.18,246.49a.55.55,0,0,1,0,1,2,2,0,0,1-1.79,0c-.49-.29-.5-.75,0-1A2,2,0,0,1,95.18,246.49Z"/><polygon class="cls-24" points="106.9 257.86 108.12 258.56 106.47 258.82 106.9 257.86"/><polygon class="cls-24" points="97.99 248.44 98.44 249.41 96.77 249.15 97.99 248.44"/><path class="cls-23" d="M104.15,250.72a.68.68,0,0,1,0,1.29,2.44,2.44,0,0,1-2.23,0,.68.68,0,0,1,0-1.29A2.42,2.42,0,0,1,104.15,250.72Z"/><polygon class="cls-23" points="108.5 244.02 106.28 245.31 104.04 244.02 106.26 242.73 108.5 244.02"/><polygon class="cls-23" points="102.2 240.38 99.98 241.68 97.75 240.39 99.97 239.09 102.2 240.38"/><polygon class="cls-23" points="124.23 253.1 122.01 254.39 119.78 253.1 122 251.81 124.23 253.1"/><polygon class="cls-23" points="114.8 247.65 112.57 248.94 110.34 247.65 112.56 246.36 114.8 247.65"/><polygon class="cls-23" points="117.94 249.47 115.72 250.76 113.48 249.47 115.71 248.18 117.94 249.47"/><polygon class="cls-23" points="121.09 251.29 118.86 252.58 116.63 251.29 118.85 250 121.09 251.29"/><polygon class="cls-23" points="105.35 242.2 103.13 243.49 100.9 242.2 103.12 240.91 105.35 242.2"/><path class="cls-23" d="M99.15,244.18c2.7,1.57,2.71,4.09,0,5.66a10.74,10.74,0,0,1-9.75,0c-2.71-1.57-2.73-4.09,0-5.66A10.76,10.76,0,0,1,99.15,244.18Zm-5.76,3.35a2,2,0,0,0,1.79,0,.55.55,0,0,0,0-1,2,2,0,0,0-1.79,0c-.5.29-.49.75,0,1m5-2.92-1.66.26,1.22.71.44-1m-1.64,4.54,1.67.26-.45-1-1.22.71m-6.61.26,1.66-.26-1.22-.71-.44,1m.42-3.83,1.22-.71-1.66-.25.44,1"/><path class="cls-23" d="M107.15,249a.68.68,0,0,1,0,1.29,2.44,2.44,0,0,1-2.23,0,.68.68,0,0,1,0-1.29A2.44,2.44,0,0,1,107.15,249Z"/><path class="cls-23" d="M115.45,253.6c2.7,1.55,2.72,4.09,0,5.65a10.74,10.74,0,0,1-9.75,0c-2.71-1.56-2.73-4.09,0-5.65A10.7,10.7,0,0,1,115.45,253.6Zm-5.76,3.34a2,2,0,0,0,1.8,0,.55.55,0,0,0,0-1,2,2,0,0,0-1.79,0c-.5.29-.49.75,0,1M106.88,255l1.22-.71-1.67-.26.45,1m7.83-1-1.66.26,1.22.71.44-1m-1.64,4.54,1.67.26-.45-1-1.22.7m-6.61.26,1.66-.26-1.22-.7-.44,1"/><polygon class="cls-23" points="124.33 257.09 111.7 264.43 110.62 263.81 123.25 256.46 124.33 257.09"/><polygon class="cls-23" points="110.77 265.7 109.51 266.44 95.33 258.25 96.59 257.51 110.77 265.7"/><path class="cls-23" d="M95.2,255.92a.81.81,0,0,1,0,1.53,2.88,2.88,0,0,1-2.62,0,.81.81,0,0,1,0-1.53A3,3,0,0,1,95.2,255.92Z"/><ellipse class="cls-23" cx="99.96" cy="253.16" rx="0.91" ry="1.57" transform="translate(-153.48 352.4) rotate(-89.84)"/><polygon class="cls-23" points="111.65 245.84 109.43 247.13 107.19 245.84 109.41 244.54 111.65 245.84"/><polygon class="cls-23" points="127.38 254.92 125.16 256.21 122.92 254.92 125.14 253.63 127.38 254.92"/><polygon class="cls-23" points="99.06 238.57 96.83 239.86 94.6 238.57 96.83 237.28 99.06 238.57"/><polygon class="cls-23" points="94.17 239.67 81.54 247.02 80.46 246.39 93.1 239.05 94.17 239.67"/><polygon class="cls-23" points="92.45 255.12 91.18 255.86 77 247.67 78.26 246.93 92.45 255.12"/><polygon class="cls-24" points="108.1 254.28 106.89 254.99 106.43 254.03 108.1 254.28"/><path class="cls-25" d="M95.66,235.83l34.22,19.76-20.67,12L75,247.84Zm19.79,17.77a10.7,10.7,0,0,0-9.76,0c-2.69,1.56-2.67,4.09,0,5.65a10.74,10.74,0,0,0,9.75,0c2.69-1.56,2.67-4.1,0-5.65m-16.27-3.76c2.68-1.57,2.67-4.09,0-5.66a10.76,10.76,0,0,0-9.76,0c-2.69,1.57-2.67,4.09,0,5.66a10.74,10.74,0,0,0,9.75,0m10.33,16.6,1.26-.74-14.18-8.19-1.26.74,14.18,8.19M91.18,255.86l1.27-.74-14.19-8.19-1.26.74,14.18,8.19m33.15,1.23-1.07-.63-12.64,7.35,1.08.62,12.63-7.34m-31.23-18-12.64,7.34,1.08.63,12.64-7.35-1.08-.62m-.52,18.4a2.88,2.88,0,0,0,2.62,0,.81.81,0,0,0,0-1.53,3,3,0,0,0-2.63,0,.81.81,0,0,0,0,1.53m16.83-12.91-2.22,1.3,2.24,1.29,2.22-1.29-2.24-1.3m-3.15-1.81L104,244l2.24,1.29L108.5,244l-2.24-1.29m6.3,3.63-2.22,1.29,2.23,1.29,2.23-1.29-2.24-1.29m12.59,7.27-2.23,1.29,2.24,1.29,2.22-1.29-2.23-1.29m-22-12.72-2.22,1.29,2.23,1.29,2.22-1.29-2.23-1.29m4,9.36a.68.68,0,0,0,0-1.29,2.44,2.44,0,0,0-2.23,0,.68.68,0,0,0,0,1.29,2.44,2.44,0,0,0,2.23,0M101.93,252a2.44,2.44,0,0,0,2.23,0,.68.68,0,0,0,0-1.29,2.42,2.42,0,0,0-2.22,0,.68.68,0,0,0,0,1.29m-5.11-14.73-2.22,1.29,2.24,1.29,2.22-1.29-2.24-1.29M122,251.81l-2.22,1.3,2.23,1.28,2.22-1.29L122,251.81M100,239.1l-2.22,1.29,2.23,1.29,2.22-1.3L100,239.1M118.85,250l-2.22,1.29,2.23,1.29,2.23-1.29L118.85,250m-3.14-1.82-2.23,1.29,2.24,1.29,2.22-1.29-2.23-1.29m-14.63,5.62a.68.68,0,0,0,0-1.29,2.48,2.48,0,0,0-2.22,0,.68.68,0,0,0,0,1.29,2.5,2.5,0,0,0,2.23,0"/><path class="cls-20" d="M75.31,242.72a4.06,4.06,0,0,0,2.62,1.33c1.45,0,5-1,5.85-1s4.6,2.81,5.87,2.81,4.2-1.17,4.2-1.62-1.78-2.48-8.35-4.5L80,237.87"/><path class="cls-26" d="M45.45,468.22a18.49,18.49,0,0,0,13.95-1.68c3.36.1,21.6-7.71,24.08-1.16,2.18,5.75-5.72,11.06-9.94,12.09-9.22,2.23-16,6.82-19.74,7.6-2.75.58-6.32,1-8.52-1.2C42.65,481.27,42.87,471.65,45.45,468.22Z"/><path class="cls-27" d="M53.8,483.48c3.7-.78,10.52-5.37,19.74-7.61,3.53-.85,9.63-4.72,10.24-9.33.82,5.28-6.31,10-10.24,10.93-9.22,2.23-16,6.82-19.74,7.6-2.75.58-6.32,1-8.52-1.2a5.48,5.48,0,0,1-1.21-2.2C47.27,484.33,51.05,484.06,53.8,483.48Z"/><path class="cls-26" d="M15.87,454.94a18.5,18.5,0,0,0,14-1.69c3.36.1,21.6-7.71,24.08-1.15,2.17,5.74-5.73,11.06-9.95,12.08-9.21,2.23-16,6.83-19.73,7.61-2.76.58-6.33,1-8.52-1.21C13.06,468,13.29,458.36,15.87,454.94Z"/><path class="cls-27" d="M24.22,470.2c3.7-.78,10.52-5.38,19.73-7.61,3.54-.86,9.63-4.73,10.25-9.34.82,5.29-6.31,10-10.25,10.93-9.21,2.23-16,6.83-19.73,7.61-2.76.58-6.33,1-8.52-1.21a5.41,5.41,0,0,1-1.21-2.2C17.69,471,21.46,470.78,24.22,470.2Z"/><path class="cls-17" d="M15.5,405.38a111.59,111.59,0,0,1,4.21-20s-1.25-17.24-1.88-33.59c-.71-18.55-7.15-34.88-2.07-49.68L73,314.86s-3.46,73.95-4.22,82.91a170.06,170.06,0,0,1-2.57,20.76C63.58,432.89,59.34,467,59.34,467c-6.05,3.51-14,1.57-14,1.57s.44-43.19.83-53.53c.48-12.64.86-11.67.86-11.67L45.14,372,43.9,356.3S42.32,367.78,41.29,378c-.9,8.95-3.07,17-5.48,33.69-2.09,14.45-5.48,43.48-5.48,43.48-6.06,3.52-14.28.6-14.28.6S13.87,417.91,15.5,405.38Z"/><path class="cls-20" d="M23.86,214.14c4.36.21,7.61,1.33,8.15.05.43-1,1-6.81,1-6.82-.51-1.26-.94-2.62-.94-2.62a26.44,26.44,0,0,1-7.92-16.18c-1.23-11.77,5.13-22.08,16.91-23.31,11.07-1.15,19.21,6.63,21.39,17.31,1.16,5.28,3.5,15.24.35,23.92-1.76,4.85-4,8.7-6.3,9.45a56.29,56.29,0,0,1-6.55-.58h0s-.59,3.27-1,5.36-.24,3.22,3.94,5.79-6.32,7.87-13.18,7.35-14.58-4.66-16.7-9.1C20.67,219.82,20.87,214,23.86,214.14Z"/><path class="cls-2" d="M30.17,214.78c-1.21,3,1.86,6.7,10,9.27s8.92-.74,8.92-.74,12,5.47,15.91,8.2c4.92,3.43,7.09,13.37,7.76,30.15.76,19.42.83,48.23.18,53.2,0,0-9.18,9.15-20.93,8.19s-31.52-11.37-36.32-19.4c.13-17,2.12-19.79-.63-29.6C8.8,251.59,5.47,242.4,8.54,227.48c2.53-12.3,6.07-13.83,10.93-13.71A101.17,101.17,0,0,1,30.17,214.78Z"/><path class="cls-28" d="M62.07,181s10.18-15.47-11.87-18.62c-15.9-2.27-26.12,7.94-27.3,19C21.77,192,28.3,203,33,207.37c2.29.82,7.24,1.29,13.74-1.66a79.58,79.58,0,0,0,.3-8.67S39.3,180.73,62.07,181Z"/><path class="cls-20" d="M93,279.47c-9.64,2.43-11.9-3.65-13.17-8.68-3.07-12.18-4.72-23.19-7-30.1-2.69-8.16-5.52-9.46-9.48-11.05-4.65-1.86-8.66,2.07-7.11,12.45,1.83,12.28,4.24,20.9,8.83,35.43,1.2,3.8,3.89,10.54,7.92,13.8,5,4,12.46,3.85,23.79,1,4.84-1.21,10.14-4.09,19.28-8.36,2.45-1.14,4.36-1.9,9.07-4.1s6.21-22.59,4.77-20.52l-10.06,5.77c0-.63,1.34-1.89,2.12-4.54s0-5.48-1.47-5.79-1.19-.22-2.37,2.27-3,4.33-4.38,8c-1.22,3.2-1.77,4.5-4,6.82C107.4,274.38,102.15,277.16,93,279.47Z"/><path class="cls-29" d="M59.77,228c6.44-.95,11,1.94,13.83,11.7s4.83,17.75,4.83,17.75-3.08,5.3-10.79,7.17-10.47-1.82-10.47-1.82S55,252.56,53.71,245.6,51.81,229.15,59.77,228Z"/><g class="cls-30"><path class="cls-15" d="M382.53,0c15.55,0,28.15,7.28,28.15,16.25H382.53Z"/><path class="cls-15" d="M382.53,32.5c-15.54,0-28.14-7.27-28.14-16.25h28.14Z"/><path class="cls-15" d="M382.53,96.21c15.55,0,28.15,7.27,28.15,16.25H382.53Z"/><path class="cls-15" d="M382.53,128.71c-15.54,0-28.14-7.28-28.14-16.25h28.14Z"/><path class="cls-15" d="M465.12,48.48c15.54,0,28.14,7.28,28.14,16.25H465.12Z"/><path class="cls-15" d="M465.12,81C449.57,81,437,73.71,437,64.73h28.15Z"/><path class="cls-15" d="M299.91,48.48c15.54,0,28.14,7.28,28.14,16.25H299.91Z"/><path class="cls-15" d="M299.91,81c-15.55,0-28.15-7.27-28.15-16.25h28.15Z"/></g><g class="cls-31"><path class="cls-15" d="M410.68,16.25c0,9-12.6,16.25-28.15,16.25V16.25Z"/><path class="cls-15" d="M354.39,16.25C354.39,7.28,367,0,382.53,0V16.25Z"/><path class="cls-15" d="M410.68,112.46c0,9-12.6,16.25-28.15,16.25V112.46Z"/><path class="cls-15" d="M354.39,112.46c0-9,12.6-16.25,28.14-16.25v16.25Z"/><path class="cls-15" d="M493.26,64.73c0,9-12.6,16.25-28.14,16.25V64.73Z"/><path class="cls-15" d="M437,64.73c0-9,12.6-16.25,28.15-16.25V64.73Z"/><path class="cls-15" d="M328.05,64.73c0,9-12.6,16.25-28.14,16.25V64.73Z"/><path class="cls-15" d="M271.76,64.73c0-9,12.6-16.25,28.15-16.25V64.73Z"/></g></g></g></svg>